<svg 
    xmlns="http://www.w3.org/2000/svg" 
    xmlns:xlink="http://www.w3.org/1999/xlink" 
    version="1.1" 
    x="0px" y="0px" 
    viewBox="0 0 1024 1280" 
    style="enable-background:new 0 0 1024 1024;" 
    xml:space="preserve"
    transform="translate(0, 7.5)">
    <g>
        <g>
            <g>
                <path 
                    fill="white"
                    d="M631.3,140.8c30.6,0,61.2,0,91.7,0c48.9,0,97.8,0,146.7,0c11.2,0,22.3,0,33.5,0c-6.7-6.7-13.3-13.3-20-20     
                       c0,30.6,0,61.2,0,91.7c0,48.9,0,97.8,0,146.7c0,11.2,0,22.3,0,33.5c0,10.5,9.2,20.5,20,20c10.8-0.5,20-8.8,20-20     
                       c0-30.6,0-61.2,0-91.7c0-48.9,0-97.8,0-146.7c0-11.2,0-22.3,0-33.5c0-10.8-9.2-20-20-20c-30.6,0-61.2,0-91.7,0     
                       c-48.9,0-97.8,0-146.7,0c-11.2,0-22.3,0-33.5,0c-10.5,0-20.5,9.2-20,20C611.7,131.6,620,140.8,631.3,140.8L631.3,140.8z"/>
            </g>
        </g>
    <g>
    <g>
        <path 
            fill="white"
            d="M466.1,586.1c15-15,29.9-29.9,44.9-44.9c35.9-35.9,71.8-71.8,107.8-107.8     
            c43.5-43.5,86.9-86.9,130.4-130.4c37.6-37.6,75.1-75.1,112.7-112.7c18.2-18.2,36.9-36.2,54.8-54.8c0.3-0.3,0.5-0.5,0.8-0.8     
            c7.4-7.4,8-21,0-28.3c-8-7.3-20.4-7.9-28.3,0c-15,15-29.9,29.9-44.9,44.9c-35.9,35.9-71.8,71.8-107.8,107.8     
            c-43.5,43.5-86.9,86.9-130.4,130.4c-37.6,37.6-75.1,75.1-112.7,112.7c-18.2,18.2-36.9,36.2-54.8,54.8c-0.3,0.3-0.5,0.5-0.8,0.8     
            c-7.4,7.4-8,21,0,28.3C445.8,593.5,458.2,594,466.1,586.1L466.1,586.1z"/>
    </g>
    </g>
        <g>
            <g>
                <path 
                    fill="white"
                    d="M883.3,552.8c0,26.2,0,52.4,0,78.5c0,46.7,0,93.4,0,140.1c0,16.4,0,32.8,0,49.2c0,3.8,0,7.7,0,11.5     
                    c0,0.5,0,1,0,1.6c0,1.9-0.1,3.7-0.2,5.5c0,0.5-0.1,0.9-0.1,1.4c-0.2,1.8-0.2,1.8,0,0.1c1.2-2.3,0-0.5-0.2,0.7     
                    c-0.3,1.4-2.1,12-3.5,12.2c0.1,0,1.8-3.9,0.5-1.1c-0.5,1-0.9,2-1.4,3c-0.9,1.7-1.9,3.5-2.9,5.1c-0.4,0.6-2.4,4.3-3,4.3     
                    c0.7,0,2.9-3.3,0.3-0.5c-0.9,1-1.7,2-2.6,2.9c-1.3,1.4-2.7,2.8-4.2,4.1c-0.6,0.6-1.3,1.1-2,1.7c-2.9,2.5,1-0.7,1-0.7     
                    c0.1,1.6-9.7,6-11.2,6.8c-0.4,0.2-2.1,1.2-2.4,1.1c0.5,0.2,3.9-1.4,1.1-0.5c-1.9,0.6-3.8,1.3-5.7,1.8c-2,0.5-3.9,0.9-5.9,1.3     
                    c-3.9,0.8,1.3-0.1,1.3-0.1c-0.3,0.5-3.3,0.3-4.1,0.4c-1.6,0.1-3.1,0.1-4.7,0.1c-5,0-9.9,0-14.9,0c-26.9,0-53.8,0-80.7,0     
                    c-42.1,0-84.1,0-126.2,0c-48.4,0-96.8,0-145.3,0c-45.4,0-90.9,0-136.3,0c-33.6,0-67.3,0-100.9,0c-14.2,0-28.6,0.7-42.8-0.1     
                    c-0.9-0.1-1.8-0.1-2.7-0.2c-1.8-0.1-2.2-1.1,1.3,0.2c-1.8-0.7-4.1-0.8-5.9-1.2c-1.9-0.5-3.9-1.1-5.8-1.7     
                    c-0.3-0.1-2.5-0.8-2.5-0.9c2.5,1.1,3.1,1.3,1.7,0.7c-0.6-0.3-1.2-0.5-1.8-0.8c-3.6-1.7-6.8-3.8-10.1-6c-2.5-1.6,0.6,0.8,0.9,0.8     
                    c-0.2,0-1.7-1.4-2-1.7c-1.6-1.4-3.2-2.9-4.7-4.5c-0.5-0.5-4.4-4.2-4.3-4.9c0,0,2.9,4.1,0.8,0.9c-0.5-0.7-1-1.4-1.5-2.2     
                    c-1.1-1.6-2.1-3.3-3-5.1c-0.5-1-1-1.9-1.5-2.9c-0.2-0.4-0.4-0.8-0.6-1.2c-0.9-2-0.7-1.6,0.5,1.1c-1.2-0.2-3-9.7-3.2-10.9     
                    c-0.1-0.4-0.8-3.2-0.6-3.3c0.1,0,0.5,5.3,0.2,1.3c-0.2-2.3-0.3-4.6-0.3-6.9c0-3.5,0-7,0-10.5c0-24.8,0-49.6,0-74.4     
                    c0-40.9,0-81.8,0-122.7c0-48,0-96,0-144.1c0-46.3,0-92.7,0-139c0-35.3,0-70.6,0-106c0-15.5-0.1-31,0-46.5c0-2.7,0.2-5.3,0.4-7.9     
                    c0.2-3-1.1,5,0,0.6c0.2-0.9,0.3-1.8,0.5-2.6c0.4-1.7,0.8-3.5,1.4-5.2c0.3-1.1,0.7-2.1,1-3.2c1.1-3.4-0.7-0.7-0.3,0.5     
                    c-0.4-1.1,2.3-4.8,2.9-5.9c0.8-1.5,1.8-3,2.7-4.5c0.6-0.9,1.3-1.8,1.9-2.7c1.3-2.4-3.2,3.7-0.3,0.4c2.6-2.9,5.2-5.8,8.2-8.4     
                    c0.4-0.3,3.8-2.6,1-0.9c-2.5,1.5,0,0,0.6-0.4c1.6-1.1,3.3-2.2,5-3.2c1.7-1,3.5-1.9,5.2-2.7c1.2-0.6,3-0.4,0.6-0.3     
                    c-1.6,0.7-1.6,0.7,0.1,0c0.6-0.2,1.2-0.5,1.9-0.7c1-0.3,10.6-3.5,11.1-2.7c-0.2-0.3-4.8,0.5-0.6,0.1c1.1-0.1,2.3-0.2,3.4-0.2     
                    c0.9,0,1.9,0,2.8-0.1c0.7,0,1.3,0,2,0c4.1,0,8.3,0,12.4,0c39.8,0,79.7,0,119.5,0c41.9,0,83.9,0,125.8,0c7.1,0,14.1,0,21.2,0     
                    c10.5,0,20.5-9.2,20-20c-0.5-10.8-8.8-20-20-20c-26.8,0-53.6,0-80.3,0c-47.1,0-94.2,0-141.3,0c-16,0-32,0-48,0     
                    c-17.2,0-33.6,1.4-49.6,8.7c-31.2,14.3-51,47-51.2,81c0,4.5,0,9,0,13.5c0,26.6,0,53.2,0,79.8c0,42.6,0,85.2,0,127.8     
                    c0,48.7,0,97.5,0,146.2c0,46,0,92,0,138c0,33.8,0,67.5,0,101.3c0,17.1-1.1,34.6,1.4,51.6c2.7,18.5,12.4,36.3,25.8,49.2     
                    c15.1,14.5,34.1,22.7,54.7,25c5.6,0.6,11.3,0.4,17,0.4c24.5,0,49,0,73.4,0c41.3,0,82.5,0,123.8,0c48.7,0,97.3,0,146,0     
                    c46.6,0,93.1,0,139.7,0c35.6,0,71.1,0,106.7,0c14.8,0,29.5,0.1,44.3,0c37.5-0.3,69.7-23.4,83.7-57.8c5.8-14.2,5.9-29.1,5.9-44.1     
                    c0-39.7,0-79.4,0-119.1c0-42.6,0-85.1,0-127.7c0-7.2,0-14.5,0-21.7c0-10.5-9.2-20.5-20-20C892.4,533.2,883.3,541.5,883.3,552.8     
                    L883.3,552.8z"/>
            </g>
        </g>
    </g>
</svg>