    <!-- transform="translate(0, 7.5)" -->
<svg 
    xmlns:dc="http://purl.org/dc/elements/1.1/" 
    xmlns:cc="http://creativecommons.org/ns#" 
    xmlns:rdf="http://www.w3.org/1999/02/22-rdf-syntax-ns#" 
    xmlns:svg="http://www.w3.org/2000/svg" 
    xmlns="http://www.w3.org/2000/svg" 
    xmlns:sodipodi="http://sodipodi.sourceforge.net/DTD/sodipodi-0.dtd" 
    xmlns:inkscape="http://www.inkscape.org/namespaces/inkscape" 
    version="1.1" 
    x="0px" 
    y="0px" 
    viewBox="0 0 100 125"
    >
    <!-- width="57px" height="57px" -->
    <!-- <circle fill="white" r="52.5" cx="50" cy="52.5"/> -->
    <g transform="translate(18.5,-587.5)">
    <circle 
        transform="translate(-18.5, 600)"
        fill="white" r="44.5" cx="50" cy="52.5"/>
        <path
            transform="scale(0.65, 0.65)"
            style="color:#000000;enable-background:accumulate;" 
            d="m 18,959.36217 0,86.00003 48,0 0,-14 c 0.01,-0.9745 0.9163,-1.989 2,-2 l 14,0 0,-70.00003 -64,0 z m 32,9 c 3.3137,0 6,2.6863 6,6.00003 0,3.3137 -2.6863,6 -6,6 -3.3137,0 -6,-2.6863 -6,-6 0,-3.31373 2.6863,-6.00003 6,-6.00003 z m 0,14.00003 c 6,0 13,2 13,10 l -26,0 c 0,-8 7,-10 13,-10 z m -20,17 40,0 c 1.1046,0 2,0.8954 2,2 0,1.1046 -0.8954,2 -2,2 l -40,0 c -1.1046,0 -2,-0.8954 -2,-2 0,-1.1046 0.8954,-2 2,-2 z m 0,12 40,0 c 1.1046,0 2,0.8954 2,2 0,1.1046 -0.8954,2 -2,2 l -40,0 c -1.1046,0 -2,-0.8954 -2,-2 0,-1.1046 0.8954,-2 2,-2 z m 0,12 40,0 c 1.1046,0 2,0.8954 2,2 0,1.1046 -0.8954,2 -2,2 l -40,0 c -1.1046,0 -2,-0.8954 -2,-2 0,-1.1046 0.8954,-2 2,-2 z m 40,10 0,10 10,-10 -10,0 z" 
            fill="black" 
            stroke="none" 
            marker="none" 
            visibility="visible" 
            display="inline" 
            overflow="visible"
            opacity="0.9"/>
    </g>
</svg>