<svg 
    transform="translate(0, 10)"
    xmlns="http://www.w3.org/2000/svg" 
    xmlns:xlink="http://www.w3.org/1999/xlink" 
    version="1.1" x="0px" y="0px" viewBox="0 0 1024 1280" 
    style="enable-background:new 0 0 1024 1024;" xml:space="preserve"
    height="30px" width="30px">
    <g>
        <g>
            <g>
                <path 
                    fill="white"
                    d="M79.4,218c10.7,10.7,21.4,21.4,32,32c25.6,25.6,51.3,51.3,76.9,76.9c31,31,62.1,62.1,93.1,93.1     c26.8,26.8,53.7,53.7,80.5,80.5c13,13,25.8,26.4,39.1,39.1c0.2,0.2,0.4,0.4,0.6,0.6c0-18.9,0-37.7,0-56.6     c-10.7,10.7-21.4,21.4-32,32c-25.6,25.6-51.3,51.3-76.9,76.9c-31,31-62.1,62.1-93.1,93.1c-26.8,26.8-53.7,53.7-80.5,80.5     c-13,13-26.3,25.9-39.1,39.1c-0.2,0.2-0.4,0.4-0.6,0.6c-14.8,14.8-15.9,42,0,56.6c16,14.7,40.8,15.8,56.6,0     c10.7-10.7,21.4-21.4,32-32c25.6-25.6,51.3-51.3,76.9-76.9c31-31,62.1-62.1,93.1-93.1c26.8-26.8,53.7-53.7,80.5-80.5     c13-13,26.3-25.9,39.1-39.1c0.2-0.2,0.4-0.4,0.6-0.6c15.3-15.3,15.3-41.3,0-56.6c-10.7-10.7-21.4-21.4-32-32     c-25.6-25.6-51.3-51.3-76.9-76.9c-31-31-62.1-62.1-93.1-93.1c-26.8-26.8-53.7-53.7-80.5-80.5c-13-13-25.9-26.3-39.1-39.1     c-0.2-0.2-0.4-0.4-0.6-0.6c-14.8-14.8-42-15.9-56.6,0C64.7,177.4,63.6,202.2,79.4,218L79.4,218z"/>
            </g>
        </g>
        <g>
            <g>
                <path 
                    fill="white"
                    d="M407.5,874.3c16.8,0,33.7,0,50.5,0c40.6,0,81.2,0,121.8,0c49,0,97.9,0,146.9,0c42.3,0,84.6,0,127,0     c20.6,0,41.2,0.3,61.8,0c0.3,0,0.6,0,0.9,0c20.9,0,41-18.4,40-40c-1-21.7-17.6-40-40-40c-16.8,0-33.7,0-50.5,0     c-40.6,0-81.2,0-121.8,0c-49,0-97.9,0-146.9,0c-42.3,0-84.6,0-127,0c-20.6,0-41.2-0.3-61.8,0c-0.3,0-0.6,0-0.9,0     c-20.9,0-41,18.4-40,40C368.5,855.9,385.1,874.3,407.5,874.3L407.5,874.3z"/>
            </g>
        </g>
    </g>
</svg>